<svg width="86" height="86" viewBox="0 0 86 86" fill="none" xmlns="http://www.w3.org/2000/svg">
<path d="M32.25 39.4168V35.8335C32.25 29.8852 34.0417 25.0835 43 25.0835C51.9583 25.0835 53.75 29.8852 53.75 35.8335V39.4168" stroke="#6805F3" stroke-width="5.375" stroke-linecap="round" stroke-linejoin="round"/>
<path d="M42.9995 52.3162C44.1869 52.3162 45.1494 51.3535 45.1494 50.1661C45.1494 48.9787 44.1869 48.0161 42.9995 48.0161C41.8121 48.0161 40.8496 48.9787 40.8496 50.1661C40.8496 51.3535 41.8121 52.3162 42.9995 52.3162Z" stroke="#6805F3" stroke-width="5.375" stroke-linecap="round" stroke-linejoin="round"/>
<path d="M51.9583 60.9165H34.0416C26.8749 60.9165 25.0833 59.1248 25.0833 51.9582V48.3748C25.0833 41.2082 26.8749 39.4165 34.0416 39.4165H51.9583C59.1249 39.4165 60.9166 41.2082 60.9166 48.3748V51.9582C60.9166 59.1248 59.1249 60.9165 51.9583 60.9165Z" stroke="#6805F3" stroke-width="5.375" stroke-linecap="round" stroke-linejoin="round"/>
<path d="M43.0001 78.8332C62.7903 78.8332 78.8334 62.79 78.8334 42.9998C78.8334 23.2096 62.7903 7.1665 43.0001 7.1665C23.2099 7.1665 7.16675 23.2096 7.16675 42.9998C7.16675 62.79 23.2099 78.8332 43.0001 78.8332Z" stroke="#6805F3" stroke-width="5.375" stroke-linecap="round" stroke-linejoin="round"/>
</svg>
